<svg width="18" height="22" viewBox="0 0 18 22" fill="none" xmlns="http://www.w3.org/2000/svg">
<path d="M9.37541 5.08074C10.3243 5.08074 11.5137 4.44526 12.222 3.59797C12.8635 2.8301 13.3312 1.75774 13.3312 0.685379C13.3312 0.53975 13.3179 0.39412 13.2911 0.274969C12.2354 0.314686 10.9658 0.976638 10.204 1.86365C9.6026 2.53884 9.05466 3.59797 9.05466 4.68357C9.05466 4.84244 9.08139 5.0013 9.09476 5.05426C9.16158 5.0675 9.26849 5.08074 9.37541 5.08074ZM6.03434 21.1C7.33067 21.1 7.90534 20.2394 9.52241 20.2394C11.1662 20.2394 11.5271 21.0735 12.9704 21.0735C14.387 21.0735 15.3359 19.7761 16.2313 18.5051C17.2336 17.0488 17.6479 15.619 17.6746 15.5528C17.5811 15.5263 14.8681 14.4275 14.8681 11.3428C14.8681 8.66852 17.0064 7.46376 17.1267 7.37109C15.7101 5.35876 13.5584 5.3058 12.9704 5.3058C11.38 5.3058 10.0837 6.25901 9.26849 6.25901C8.38645 6.25901 7.22376 5.35876 5.84724 5.35876C3.22785 5.35876 0.568359 7.50348 0.568359 11.5546C0.568359 14.07 1.55731 16.7311 2.77346 18.4522C3.81587 19.9085 4.72464 21.1 6.03434 21.1Z" fill="#000100"/>
</svg>
