<svg width="39" height="24" viewBox="0 0 39 24" fill="none" xmlns="http://www.w3.org/2000/svg">
<path d="M38.216 22.6862C38.1934 22.7121 38.16 22.7331 38.1482 22.764C37.8024 23.6251 37.2906 23.9864 36.38 23.9973C35.8289 24.0033 35.2768 23.9973 34.7257 23.9973C24.0269 23.9973 13.3279 23.9973 2.62849 23.9973C2.34685 24.0068 2.06512 23.9813 1.78954 23.9215C1.43666 23.8267 1.12497 23.6151 0.903802 23.3202C0.682637 23.0252 0.564627 22.6637 0.568449 22.293C0.568449 15.4205 0.568449 8.5486 0.568449 1.67739C0.573477 1.28159 0.717294 0.900586 0.974061 0.602828C1.23083 0.305071 1.58371 0.110079 1.96932 0.0528861C2.18882 0.0238087 2.4101 0.010803 2.63144 0.0139699C13.7578 0.0119742 24.8852 0.00731758 36.0135 0C37.0549 0 37.8231 0.299356 38.216 1.32415V22.6862ZM1.59503 5.12197V21.9527C1.59503 22.738 1.77382 22.9227 2.54008 22.9227H36.2552C36.9959 22.9227 37.1865 22.7231 37.1865 21.9747C37.1865 16.4972 37.1865 11.0196 37.1865 5.54207V5.12197H1.59503ZM1.59503 3.99739H37.1865V2.10148C37.1865 1.2543 37.0165 1.08267 36.1727 1.08267H2.60491C2.50668 1.08267 2.40844 1.08267 2.3102 1.08267C1.87992 1.09564 1.6078 1.33712 1.59896 1.7662C1.58521 2.50361 1.59601 3.23703 1.59601 3.99739H1.59503Z" fill="#686777"/>
<path d="M34.6274 9.91959C34.6276 10.68 34.3309 11.4095 33.8024 11.9481C33.2738 12.4867 32.5566 12.7903 31.8079 12.7924C31.2443 12.7969 30.6921 12.6312 30.2215 12.3161C29.7508 12.0011 29.3831 11.551 29.1649 11.0231C28.9467 10.4952 28.888 9.91334 28.9962 9.35147C29.1044 8.7896 29.3747 8.27311 29.7726 7.86764C30.1706 7.46217 30.6782 7.18605 31.231 7.07438C31.7838 6.9627 32.3568 7.02051 32.8772 7.24046C33.3976 7.46041 33.8418 7.83257 34.1535 8.30962C34.4651 8.78667 34.6301 9.34707 34.6274 9.91959ZM31.7922 11.7157C32.1437 11.7143 32.4868 11.6074 32.7786 11.4084C33.0704 11.2094 33.2977 10.9272 33.432 10.5974C33.5663 10.2675 33.6016 9.90461 33.5334 9.55441C33.4652 9.20421 33.2966 8.88232 33.0488 8.6292C32.801 8.37609 32.485 8.20306 32.1406 8.13188C31.7962 8.0607 31.4388 8.09454 31.1133 8.22915C30.7878 8.36376 30.5087 8.59312 30.3112 8.8884C30.1137 9.18368 30.0066 9.53169 30.0033 9.88865C29.999 10.1291 30.0422 10.3679 30.1304 10.591C30.2186 10.8141 30.35 11.017 30.5168 11.1876C30.6837 11.3582 30.8825 11.493 31.1016 11.584C31.3207 11.6751 31.5555 11.7206 31.7922 11.7177V11.7157Z" fill="#686777"/>
<path d="M18.0833 16.9495C18.0841 17.7101 17.7889 18.4402 17.2621 18.9808C16.7353 19.5213 16.0195 19.8284 15.2707 19.8353C14.8934 19.8421 14.5185 19.7724 14.168 19.6304C13.8174 19.4883 13.4983 19.2767 13.2292 19.0079C12.9601 18.7391 12.7464 18.4186 12.6007 18.065C12.4549 17.7114 12.38 17.3318 12.3804 16.9485C12.3807 16.5651 12.4562 16.1857 12.6026 15.8323C12.7489 15.479 12.9631 15.1588 13.2327 14.8905C13.5023 14.6222 13.8218 14.4112 14.1725 14.2697C14.5233 14.1283 14.8983 14.0593 15.2756 14.0667C15.6464 14.0685 16.0132 14.1446 16.355 14.2905C16.6968 14.4364 17.0069 14.6493 17.2677 14.917C17.5284 15.1847 17.7347 15.5021 17.8746 15.8508C18.0146 16.1996 18.0855 16.5729 18.0833 16.9495ZM15.2344 15.1324C14.882 15.1369 14.5388 15.2474 14.248 15.4497C13.9573 15.6521 13.732 15.9373 13.6007 16.2695C13.4693 16.6017 13.4377 16.966 13.5098 17.3164C13.5819 17.6668 13.7546 17.9877 14.0059 18.2386C14.2573 18.4895 14.5762 18.6592 14.9224 18.7263C15.2686 18.7934 15.6266 18.7549 15.9513 18.6157C16.276 18.4764 16.5528 18.2427 16.7469 17.9438C16.941 17.645 17.0437 17.2945 17.0419 16.9365C17.0409 16.6973 16.9933 16.4606 16.9018 16.2402C16.8102 16.0197 16.6766 15.8199 16.5087 15.6522C16.3407 15.4844 16.1417 15.3522 15.9232 15.263C15.7046 15.1737 15.4709 15.1294 15.2354 15.1324H15.2344Z" fill="#686777"/>
<path d="M34.6273 16.9475C34.6289 17.7081 34.3343 18.4386 33.8078 18.9796C33.2813 19.5206 32.5656 19.8281 31.8167 19.8352C31.4394 19.8424 31.0644 19.773 30.7137 19.6313C30.3631 19.4895 30.0438 19.2782 29.7744 19.0097C29.5051 18.7411 29.2911 18.4208 29.1451 18.0673C28.9991 17.7138 28.9238 17.3343 28.9238 16.951C28.9238 16.5676 28.9991 16.1881 29.1451 15.8346C29.2911 15.4811 29.5051 15.1608 29.7744 14.8922C30.0438 14.6237 30.3631 14.4124 30.7137 14.2706C31.0644 14.1289 31.4394 14.0595 31.8167 14.0667C32.1876 14.068 32.5546 14.1436 32.8966 14.2891C33.2387 14.4347 33.5492 14.6473 33.8102 14.9149C34.0713 15.1825 34.2778 15.4998 34.418 15.8485C34.5582 16.1973 34.6293 16.5707 34.6273 16.9475ZM33.5879 16.9405C33.5881 16.5805 33.4832 16.2285 33.2865 15.9291C33.0898 15.6297 32.81 15.3963 32.4827 15.2583C32.1553 15.1204 31.7951 15.0841 31.4475 15.1542C31.0998 15.2242 30.7805 15.3974 30.5297 15.6518C30.279 15.9062 30.1082 16.2304 30.0388 16.5834C29.9695 16.9364 30.0048 17.3024 30.1402 17.6351C30.2757 17.9677 30.5052 18.2521 30.7997 18.4523C31.0943 18.6524 31.4407 18.7594 31.7951 18.7596C32.0309 18.7614 32.2647 18.7156 32.4829 18.6249C32.7011 18.5342 32.8994 18.4003 33.0662 18.231C33.233 18.0618 33.365 17.8605 33.4546 17.639C33.5442 17.4174 33.5895 17.18 33.5879 16.9405Z" fill="#686777"/>
<path d="M4.15531 16.9315C4.15731 16.5534 4.2326 16.1795 4.37688 15.831C4.52116 15.4825 4.7316 15.1663 4.99619 14.9004C5.26078 14.6345 5.57433 14.4242 5.91895 14.2814C6.26357 14.1386 6.63251 14.0661 7.00469 14.0682C7.37688 14.0702 7.74503 14.1467 8.08812 14.2932C8.43121 14.4398 8.74252 14.6535 9.00428 14.9223C9.26605 15.191 9.47313 15.5095 9.61371 15.8596C9.75429 16.2096 9.82562 16.5844 9.82362 16.9624C9.81958 17.7259 9.51711 18.4565 8.98275 18.9935C8.44839 19.5305 7.72591 19.8299 6.97424 19.8258C6.22258 19.8217 5.5033 19.5144 4.97465 18.9716C4.446 18.4289 4.15128 17.695 4.15531 16.9315ZM6.9708 15.1354C6.61838 15.1391 6.27493 15.2487 5.98375 15.4504C5.69258 15.6522 5.46671 15.9369 5.33461 16.2688C5.20252 16.6007 5.17011 16.9649 5.24147 17.3155C5.31284 17.6661 5.48479 17.9873 5.73564 18.2388C5.98649 18.4903 6.30501 18.6607 6.65107 18.7286C6.99712 18.7964 7.35521 18.7587 7.6802 18.6202C8.00518 18.4817 8.28252 18.2485 8.47726 17.9501C8.67199 17.6517 8.77539 17.3015 8.77444 16.9435C8.77526 16.7037 8.729 16.4661 8.63837 16.2447C8.54775 16.0233 8.41458 15.8224 8.24664 15.6539C8.07871 15.4854 7.87939 15.3525 7.66032 15.2631C7.44126 15.1738 7.20685 15.1296 6.9708 15.1334V15.1354Z" fill="#686777"/>
<path d="M20.6992 16.9455C20.6977 16.5691 20.7692 16.1961 20.9097 15.8478C21.0502 15.4994 21.2569 15.1827 21.5181 14.9156C21.7792 14.6485 22.0896 14.4363 22.4315 14.2912C22.7735 14.146 23.1402 14.0708 23.5108 14.0697C24.0739 14.064 24.626 14.2284 25.0969 14.5422C25.5679 14.8559 25.9363 15.3048 26.1555 15.8317C26.3746 16.3587 26.4346 16.9399 26.3278 17.5016C26.2209 18.0632 25.9521 18.5799 25.5555 18.986C25.1589 19.3922 24.6524 19.6693 24.1003 19.7823C23.5482 19.8953 22.9756 19.839 22.455 19.6207C21.9345 19.4023 21.4897 19.0316 21.1771 18.5558C20.8644 18.08 20.6981 17.5206 20.6992 16.9485V16.9455ZM23.5363 15.1334C23.1839 15.1329 22.8392 15.2383 22.5456 15.4364C22.2521 15.6345 22.0228 15.9165 21.8868 16.2468C21.7508 16.577 21.714 16.9408 21.7812 17.2922C21.8484 17.6436 22.0166 17.967 22.2644 18.2215C22.5123 18.4761 22.8287 18.6504 23.174 18.7225C23.5192 18.7946 23.8777 18.7613 24.2043 18.6267C24.5309 18.4922 24.811 18.2624 25.0093 17.9664C25.2075 17.6705 25.3151 17.3215 25.3184 16.9635C25.3218 16.7239 25.2781 16.486 25.19 16.2637C25.1019 16.0414 24.9711 15.8392 24.8052 15.6689C24.6393 15.4985 24.4417 15.3634 24.2238 15.2715C24.006 15.1795 23.7723 15.1326 23.5363 15.1334Z" fill="#686777"/>
<path d="M5.1751 11.5012C5.44231 10.9255 5.00122 10.4126 4.51003 9.88869C4.05814 9.40673 4.19076 8.9577 4.84306 8.86889C5.62896 8.76112 6.1339 8.39491 6.46594 7.65949C6.72431 7.08473 7.2489 7.08473 7.50235 7.65151C7.84127 8.4009 8.36684 8.76611 9.15864 8.87388C9.74806 8.9547 9.90819 9.44265 9.47692 9.85477C8.8875 10.4156 8.67923 11.0242 8.84722 11.8365C8.97002 12.4352 8.53188 12.7346 7.98666 12.4452C7.33928 12.0999 6.74003 11.9892 6.07987 12.4093C5.46588 12.7994 4.97666 12.4163 5.1751 11.5012ZM5.77533 9.72704C6.23017 10.1342 6.36476 10.6042 6.16828 11.2607C6.72922 10.8676 7.21157 10.8616 7.74008 11.1839C7.52593 10.5702 7.8059 10.1332 8.19689 9.72804C7.46698 9.54942 7.46698 9.54942 6.96499 8.83496C6.73904 9.34886 6.40504 9.71906 5.77533 9.72704Z" fill="#686777"/>
<path d="M13.3767 11.7867C13.7009 11.0253 13.3099 10.3837 12.7008 9.78001C12.3648 9.44672 12.5309 8.93483 13.0014 8.88992C13.8806 8.80411 14.4308 8.37403 14.7923 7.56577C14.9976 7.10676 15.5301 7.11574 15.7324 7.58473C16.0812 8.39499 16.6451 8.78215 17.5007 8.88194C18.0047 8.93982 18.1785 9.44373 17.8052 9.78001C17.151 10.3787 16.9486 11.0563 17.1176 11.9234C17.208 12.3984 16.7816 12.7217 16.3769 12.4842C15.6175 12.0361 14.9249 12.0302 14.1616 12.4762C13.7323 12.7356 13.3551 12.4243 13.3767 11.7867ZM14.5182 11.176C15.0271 10.8497 15.5094 10.8866 16.09 11.2628C15.8297 10.5823 16.0654 10.1322 16.5439 9.67723C15.8307 9.72512 15.5084 9.34095 15.2344 8.77018C15.0379 9.41878 14.6292 9.68222 13.973 9.70816C14.4711 10.1313 14.6577 10.5773 14.5182 11.176Z" fill="#686777"/>
<path d="M21.7212 11.4753C21.9638 10.9275 21.5621 10.4156 21.0689 9.90169C20.5954 9.40875 20.731 8.95672 21.4059 8.86392C22.1809 8.75715 22.6721 8.39393 23.0012 7.67348C23.2714 7.08276 23.7871 7.07477 24.0563 7.66849C24.3844 8.39194 24.8786 8.75216 25.6497 8.86592C26.3118 8.9657 26.4661 9.44168 25.9827 9.90268C25.41 10.4505 25.2253 11.0412 25.3933 11.8216C25.5191 12.4203 25.0986 12.7316 24.5495 12.4582C23.9227 12.1429 23.3313 11.9493 22.677 12.3903C22.0493 12.8064 21.512 12.4512 21.7212 11.4753ZM24.2754 11.1759C24.0995 10.5613 24.3599 10.1292 24.8039 9.67917C24.1162 9.71609 23.7773 9.35886 23.5189 8.77112C23.2979 9.40476 22.905 9.68415 22.2419 9.70711C22.7664 10.1362 22.9403 10.5952 22.7036 11.2707C23.2773 10.8766 23.7586 10.8506 24.2734 11.1759H24.2754Z" fill="#686777"/>
</svg>
