<svg width="32" height="29" viewBox="0 0 32 29" fill="none" xmlns="http://www.w3.org/2000/svg">
<path d="M15.6292 9.34892L15.6742 9.40999H15.75H29.3125C30.0242 9.40999 30.6214 9.65224 31.1134 10.1378C31.6036 10.6217 31.85 11.23 31.85 11.9742V13.3314C31.85 13.8831 31.7205 14.3349 31.4705 14.6956C31.2204 15.0563 30.8414 15.338 30.3218 15.5353L30.2553 15.5605L30.2327 15.628L26.5452 26.67L26.5451 26.67L26.5434 26.6759C26.3852 27.2223 26.0679 27.7243 25.5844 28.1816C25.1092 28.6311 24.5826 28.85 24 28.85H8C7.41736 28.85 6.89079 28.6311 6.41558 28.1816C5.93207 27.7243 5.61477 27.2223 5.45658 26.6759L5.45668 26.6758L5.45493 26.6705L1.76743 15.5051L1.74503 15.4372L1.67824 15.4119C1.15863 15.2146 0.779616 14.933 0.529526 14.5722C0.279486 14.2115 0.15 13.7598 0.15 13.208V11.8509C0.15 11.1939 0.392853 10.6252 0.88662 10.1378C1.37861 9.65224 1.97585 9.40999 2.6875 9.40999H11.875H12.1681L11.9967 9.17225L7.05917 2.32494L7.05942 2.32476L7.05331 2.31733C6.79934 2.00882 6.69441 1.71606 6.7122 1.43515C6.72995 1.15483 6.87153 0.859966 7.16388 0.549773C7.55273 0.245407 7.9503 0.11935 8.3616 0.156254C8.77 0.192899 9.08273 0.39059 9.30933 0.763335L9.30882 0.76364L9.3167 0.774346L15.6292 9.34892ZM2.6875 11.7009H2.5375V11.8509V13.208V13.358H2.6875H14.9375H15.0875V13.208C15.0875 13.1432 15.0709 13.0672 15.0116 13.0087C14.9765 12.974 14.9353 12.9543 14.8941 12.9441L13.9944 11.7601L13.9494 11.7009H13.875H2.6875ZM24 26.4974H24.15V26.3525C24.1519 26.349 24.1569 26.3417 24.1679 26.3308L24.0625 26.2241L24.1679 26.3308C24.2259 26.2736 24.275 26.1964 24.275 26.1007V26.0011L27.5801 15.8453L27.6441 15.6489H27.4375H4.5625H4.35432L4.42021 15.8463L7.85029 26.1259C7.85221 26.2074 7.86405 26.2876 7.89744 26.3535C7.91695 26.392 7.94586 26.4297 7.98786 26.4573C8.0307 26.4855 8.07832 26.4974 8.125 26.4974H24ZM17.0584 13.1317L16.9246 13.358H17.1875H29.3125H29.4625V13.208V11.8509V11.7009H29.3125H17.625H17.475V11.8509C17.475 12.2267 17.3415 12.6526 17.0584 13.1317ZM9.46095 23.9818L9.45983 23.9741L9.45791 23.9665L8.14541 18.7847L8.14243 18.773L8.13759 18.7618C8.03723 18.5307 8.06273 18.275 8.25173 17.9765C8.44237 17.6754 8.68279 17.4967 8.97343 17.425L8.98164 17.423L8.98957 17.42C9.2748 17.3145 9.56011 17.3462 9.85875 17.5304C10.1643 17.7189 10.3447 17.956 10.417 18.2412C10.417 18.2413 10.4171 18.2414 10.4171 18.2415L11.7295 23.4845L11.7316 23.4931L11.7348 23.5014C11.841 23.7811 11.8094 24.0609 11.6233 24.3549C11.4364 24.65 11.2017 24.8276 10.9187 24.902H10.6875C10.4331 24.902 10.171 24.8128 9.89893 24.621C9.63276 24.4333 9.49542 24.2199 9.46095 23.9818ZM22.5419 23.9673L22.5401 23.9745L22.539 23.9818C22.5046 24.2199 22.3672 24.4333 22.1011 24.621C21.829 24.8128 21.5669 24.902 21.3125 24.902H21.0901C20.6868 24.746 20.434 24.5419 20.3037 24.3019C20.172 24.0593 20.1514 23.7537 20.2685 23.3684L20.2687 23.3684L20.2705 23.3612L21.5824 18.1199C21.5825 18.1196 21.5826 18.1193 21.5827 18.119C21.6798 17.7556 21.848 17.5231 22.0742 17.3943C22.3033 17.2639 22.6175 17.225 23.0348 17.3034L23.0347 17.3037L23.0441 17.3049C23.324 17.3394 23.5459 17.4916 23.7134 17.7854C23.8841 18.085 23.9273 18.3744 23.8546 18.6613L23.8544 18.6622L22.5419 23.9673ZM17.1625 23.6949C17.1625 24.1254 17.0584 24.4204 16.8766 24.6084C16.6956 24.7955 16.4131 24.902 16 24.902C15.5869 24.902 15.3044 24.7955 15.1234 24.6084C14.9416 24.4204 14.8375 24.1254 14.8375 23.6949V18.4514C14.8375 18.0432 14.9407 17.7645 15.121 17.5866C15.3016 17.4083 15.5851 17.306 16 17.306C16.4149 17.306 16.6984 17.4083 16.879 17.5866C17.0593 17.7645 17.1625 18.0432 17.1625 18.4514V23.6949Z" fill="black" stroke="white" stroke-width="0.3"/>
</svg>
