<svg width="83" height="83" viewBox="0 0 83 83" fill="none" xmlns="http://www.w3.org/2000/svg">
<g filter="url(#filter0_d_458_482)">
<circle cx="41.5" cy="38.5" r="28.5" fill="white"/>
</g>
<path d="M41.6292 33.3489L41.6742 33.41H41.75H55.3125C56.0242 33.41 56.6214 33.6522 57.1134 34.1378C57.6036 34.6217 57.85 35.23 57.85 35.9742V37.3314C57.85 37.8831 57.7205 38.3349 57.4705 38.6956C57.2204 39.0563 56.8414 39.338 56.3218 39.5353L56.2553 39.5605L56.2327 39.628L52.5452 50.67L52.5451 50.67L52.5434 50.6759C52.3852 51.2223 52.0679 51.7243 51.5844 52.1816C51.1092 52.6311 50.5826 52.85 50 52.85H34C33.4174 52.85 32.8908 52.6311 32.4156 52.1816C31.9321 51.7243 31.6148 51.2223 31.4566 50.6759L31.4567 50.6758L31.4549 50.6705L27.7674 39.5051L27.745 39.4372L27.6782 39.4119C27.1586 39.2146 26.7796 38.933 26.5295 38.5722C26.2795 38.2115 26.15 37.7598 26.15 37.208V35.8509C26.15 35.1939 26.3929 34.6252 26.8866 34.1378C27.3786 33.6522 27.9758 33.41 28.6875 33.41H37.875H38.1681L37.9967 33.1723L33.0592 26.3249L33.0594 26.3248L33.0533 26.3173C32.7993 26.0088 32.6944 25.7161 32.7122 25.4351C32.73 25.1548 32.8715 24.86 33.1639 24.5498C33.5527 24.2454 33.9503 24.1193 34.3616 24.1563C34.77 24.1929 35.0827 24.3906 35.3093 24.7633L35.3088 24.7636L35.3167 24.7743L41.6292 33.3489ZM28.6875 35.7009H28.5375V35.8509V37.208V37.358H28.6875H40.9375H41.0875V37.208C41.0875 37.1432 41.0709 37.0672 41.0116 37.0087C40.9765 36.974 40.9353 36.9543 40.8941 36.9441L39.9944 35.7601L39.9494 35.7009H39.875H28.6875ZM50 50.4974H50.15V50.3525C50.1519 50.349 50.1569 50.3417 50.1679 50.3308L50.0625 50.2241L50.1679 50.3308C50.2259 50.2736 50.275 50.1964 50.275 50.1007V50.0011L53.5801 39.8453L53.6441 39.6489H53.4375H30.5625H30.3543L30.4202 39.8463L33.8503 50.1259C33.8522 50.2074 33.864 50.2876 33.8974 50.3535C33.9169 50.392 33.9459 50.4297 33.9879 50.4573C34.0307 50.4855 34.0783 50.4974 34.125 50.4974H50ZM43.0584 37.1317L42.9246 37.358H43.1875H55.3125H55.4625V37.208V35.8509V35.7009H55.3125H43.625H43.475V35.8509C43.475 36.2267 43.3415 36.6526 43.0584 37.1317ZM35.461 47.9818L35.4598 47.9741L35.4579 47.9665L34.1454 42.7847L34.1424 42.773L34.1376 42.7618C34.0372 42.5307 34.0627 42.275 34.2517 41.9765C34.4424 41.6754 34.6828 41.4967 34.9734 41.425L34.9816 41.423L34.9896 41.42C35.2748 41.3145 35.5601 41.3462 35.8587 41.5304C36.1643 41.7189 36.3447 41.956 36.417 42.2412C36.417 42.2413 36.4171 42.2414 36.4171 42.2415L37.7295 47.4845L37.7316 47.4931L37.7348 47.5014C37.841 47.7811 37.8094 48.0609 37.6233 48.3549C37.4364 48.65 37.2017 48.8276 36.9187 48.902H36.6875C36.4331 48.902 36.171 48.8128 35.8989 48.621C35.6328 48.4333 35.4954 48.2199 35.461 47.9818ZM48.5419 47.9673L48.5401 47.9745L48.539 47.9818C48.5046 48.2199 48.3672 48.4333 48.1011 48.621C47.829 48.8128 47.5669 48.902 47.3125 48.902H47.0901C46.6868 48.746 46.434 48.5419 46.3037 48.3019C46.172 48.0593 46.1514 47.7537 46.2685 47.3684L46.2687 47.3684L46.2705 47.3612L47.5824 42.1199C47.5825 42.1196 47.5826 42.1193 47.5827 42.119C47.6798 41.7556 47.848 41.5231 48.0742 41.3943C48.3033 41.2639 48.6175 41.225 49.0348 41.3034L49.0347 41.3037L49.0441 41.3049C49.324 41.3394 49.5459 41.4916 49.7134 41.7854C49.8841 42.085 49.9273 42.3744 49.8546 42.6613L49.8544 42.6622L48.5419 47.9673ZM43.1625 47.6949C43.1625 48.1254 43.0584 48.4204 42.8766 48.6084C42.6956 48.7955 42.4131 48.902 42 48.902C41.5869 48.902 41.3044 48.7955 41.1234 48.6084C40.9416 48.4204 40.8375 48.1254 40.8375 47.6949V42.4514C40.8375 42.0432 40.9407 41.7645 41.121 41.5866C41.3016 41.4083 41.5851 41.306 42 41.306C42.4149 41.306 42.6984 41.4083 42.879 41.5866C43.0593 41.7645 43.1625 42.0432 43.1625 42.4514V47.6949Z" fill="black" stroke="white" stroke-width="0.3"/>
<defs>
<filter id="filter0_d_458_482" x="0" y="0" width="83" height="83" filterUnits="userSpaceOnUse" color-interpolation-filters="sRGB">
<feFlood flood-opacity="0" result="BackgroundImageFix"/>
<feColorMatrix in="SourceAlpha" type="matrix" values="0 0 0 0 0 0 0 0 0 0 0 0 0 0 0 0 0 0 127 0" result="hardAlpha"/>
<feOffset dy="3"/>
<feGaussianBlur stdDeviation="6.5"/>
<feComposite in2="hardAlpha" operator="out"/>
<feColorMatrix type="matrix" values="0 0 0 0 0 0 0 0 0 0 0 0 0 0 0 0 0 0 0.07 0"/>
<feBlend mode="normal" in2="BackgroundImageFix" result="effect1_dropShadow_458_482"/>
<feBlend mode="normal" in="SourceGraphic" in2="effect1_dropShadow_458_482" result="shape"/>
</filter>
</defs>
</svg>
