<svg width="32" height="24" viewBox="0 0 32 24" fill="none" xmlns="http://www.w3.org/2000/svg">
<path d="M31.1989 15.8698C31 16.55 30.8662 17.2571 30.5877 17.9039C30.0705 19.1065 30.3575 20.2673 30.6216 21.4456C30.7528 22.0357 30.8637 22.6307 30.9839 23.2224C31.0762 23.6753 30.7934 23.9745 30.3278 23.8909C29.2003 23.6945 28.0736 23.4906 26.946 23.2892C26.4898 23.2057 26.0335 23.1221 25.5764 23.0452C25.4892 23.0349 25.4008 23.0406 25.3156 23.0619C23.8478 23.3686 22.3808 23.6795 20.9138 23.9812C20.7892 24.0063 20.6608 24.0063 20.5362 23.9812C19.0777 23.6795 17.62 23.3703 16.1615 23.0686C16.0478 23.0456 15.9306 23.0456 15.8169 23.0686C14.366 23.3711 12.9185 23.6778 11.4693 23.977C11.3355 24.0038 11.1976 24.0038 11.0638 23.977C9.6137 23.6795 8.17125 23.3419 6.7144 23.0887C6.29114 23.0151 5.82133 23.1538 5.37945 23.2291C4.13338 23.4422 2.89155 23.6745 1.64549 23.8909C1.18075 23.9745 0.903941 23.6753 0.996211 23.2224C1.23916 22.0281 1.48719 20.8347 1.71744 19.638C1.74807 19.448 1.73739 19.2537 1.68612 19.068C1.40846 18.0084 1.1088 16.957 0.828602 15.9015C0.790927 15.752 0.790927 15.5956 0.828602 15.4461C1.11049 14.3814 1.41185 13.3217 1.6912 12.2553C1.7352 12.0791 1.7352 11.895 1.6912 11.7188C1.40762 10.6625 1.1071 9.61198 0.826909 8.55647C0.788817 8.40698 0.788817 8.2505 0.826909 8.10101C1.1088 7.03548 1.41016 5.9758 1.69035 4.91027C1.74053 4.72436 1.74948 4.52995 1.71659 4.34031C1.48719 3.15277 1.24001 1.9694 0.998751 0.784363C0.902249 0.312185 1.18668 0.0247002 1.67003 0.109106C2.4477 0.244492 3.22536 0.382385 4.00302 0.522785C4.79959 0.664856 5.59616 0.811941 6.39357 0.949835C6.49045 0.960903 6.58857 0.954388 6.68308 0.930613C8.13146 0.62892 9.5773 0.310515 11.0308 0.0330602C11.3152 -0.0212611 11.6352 0.0531141 11.9289 0.11245C13.2241 0.3757 14.5159 0.657335 15.811 0.926434C15.9247 0.94899 16.0418 0.94899 16.1555 0.926434C17.6048 0.627251 19.0523 0.318871 20.5024 0.0213587C20.6457 -0.00711799 20.7933 -0.00711799 20.9366 0.0213587C22.3867 0.3172 23.8292 0.650648 25.2869 0.904705C25.7017 0.977412 26.1605 0.842863 26.593 0.76932C27.8391 0.556214 29.0809 0.323052 30.3253 0.100752C30.7909 0.0171818 31.0745 0.313858 30.9822 0.76932C30.7409 1.95436 30.4929 3.13772 30.2652 4.32527C30.2309 4.52411 30.2404 4.72793 30.2931 4.9228C30.564 5.95073 30.8518 6.97364 31.1397 7.99738C31.1559 8.04138 31.1766 8.08365 31.2014 8.12358L31.2014 8.5406C31.1619 8.61548 31.1279 8.69313 31.0999 8.77292C30.9136 9.44149 30.7765 10.1218 30.5378 10.7678C30.2326 11.5614 30.2326 12.4378 30.5378 13.2314C30.8002 13.9602 30.9822 14.7173 31.1989 15.4611L31.1989 15.8698ZM2.13392 22.7535C2.25413 22.7427 2.34132 22.741 2.42512 22.726C3.45533 22.5429 4.48384 22.3474 5.51658 22.1769C5.93984 22.1067 6.39188 21.993 6.80159 22.0641C8.04512 22.2788 9.27341 22.5805 10.511 22.8313C10.8259 22.8956 11.1662 22.99 11.4701 22.9349C12.6146 22.726 13.7472 22.4518 14.8892 22.2229C15.3395 22.1326 15.8203 21.9914 16.2546 22.0607C17.4033 22.2463 18.5342 22.5388 19.6762 22.7686C20.0994 22.8521 20.5464 22.9925 20.9519 22.9265C22.1006 22.7402 23.2307 22.451 24.3726 22.222C24.8137 22.1334 25.275 22.0114 25.7118 22.0549C26.5346 22.1384 27.3456 22.3315 28.1625 22.4727C28.7119 22.5705 29.2629 22.6633 29.8496 22.7652C29.665 21.8693 29.4906 21.0211 29.3264 20.1703C29.2485 19.7642 29.1131 19.3689 29.2418 18.9335C29.5448 17.9248 29.8149 16.9069 30.0883 15.8898C30.1264 15.7409 30.1264 15.585 30.0883 15.436C29.8081 14.3797 29.5076 13.3292 29.2291 12.2729C29.1828 12.0957 29.1814 11.91 29.2248 11.7322C29.5033 10.6658 29.8055 9.60613 30.0874 8.5406C30.1255 8.39167 30.1255 8.23573 30.0874 8.0868C29.8072 7.0313 29.5093 5.97914 29.2282 4.92364C29.1844 4.7644 29.1749 4.59785 29.2003 4.43475C29.2934 3.90741 29.4128 3.38426 29.5186 2.8586C29.6244 2.33293 29.7285 1.79725 29.8377 1.24233C29.7217 1.25236 29.6439 1.25403 29.5677 1.2674C28.5375 1.45126 27.509 1.64598 26.4771 1.81814C26.0614 1.8875 25.6221 2.00367 25.2208 1.93681C24.073 1.74543 22.9412 1.46463 21.8001 1.23397C21.3768 1.1504 20.929 0.995796 20.5235 1.06015C19.385 1.24233 18.2642 1.53232 17.1324 1.75797C16.6626 1.85073 16.164 1.99949 15.7094 1.92929C14.5607 1.75128 13.4315 1.44875 12.2887 1.22729C11.851 1.14372 11.4286 0.955683 10.952 1.06516C9.83718 1.32089 8.71555 1.55405 7.59308 1.77719C7.1512 1.86494 6.689 1.98946 6.25474 1.94015C5.32358 1.83485 4.40596 1.62592 3.48242 1.46129C3.04308 1.38357 2.60204 1.3117 2.13392 1.2323C2.35232 2.31873 2.56564 3.34999 2.76034 4.38377C2.79442 4.57392 2.7872 4.76904 2.73918 4.95623C2.46406 6.00338 2.16609 7.04551 1.88759 8.09182C1.84992 8.2408 1.84992 8.39663 1.88759 8.54561C2.16863 9.6103 2.47083 10.67 2.75018 11.7364C2.79322 11.9143 2.79177 12.0998 2.74595 12.2771C2.4683 13.3334 2.16778 14.3847 1.88759 15.4402C1.84992 15.5895 1.84992 15.7456 1.88759 15.8949C2.16948 16.9595 2.46914 18.0201 2.75272 19.0848C2.79187 19.2354 2.80079 19.3921 2.77897 19.5461C2.73071 19.8636 2.65283 20.177 2.5885 20.4921L2.13392 22.7535Z" fill="#686777"/>
<path d="M15.9822 21.0194L4.57631 21.0194C3.96767 21.0194 3.81445 20.8715 3.81445 20.2815L3.81445 3.71436C3.81445 3.12936 3.96852 2.97726 4.57631 2.97726C12.1797 2.97726 19.7831 2.97726 27.3864 2.97726C28.0137 2.97726 28.1635 3.12184 28.1635 3.7294L28.1635 20.2681C28.1635 20.8757 28.0145 21.0203 27.3856 21.0203L15.9822 21.0194ZM4.85566 19.9706L27.1257 19.9706L27.1257 4.01939L4.85566 4.01939L4.85566 19.9706Z" fill="#686777"/>
</svg>
