<svg width="21" height="22" viewBox="0 0 21 22" fill="none" xmlns="http://www.w3.org/2000/svg">
<path fill-rule="evenodd" clip-rule="evenodd" d="M20.8774 10.9241C20.8774 10.1858 20.8111 9.47585 20.688 8.7943H10.8813V12.8221H16.4852C16.2438 14.1236 15.5102 15.2264 14.4074 15.9647V18.5773H17.7725C19.7414 16.7646 20.8774 14.0952 20.8774 10.9241Z" fill="#4285F4"/>
<path fill-rule="evenodd" clip-rule="evenodd" d="M10.8812 21.1C13.6925 21.1 16.0496 20.1676 17.7724 18.5773L14.4072 15.9647C13.4748 16.5895 12.2821 16.9586 10.8812 16.9586C8.16918 16.9586 5.8737 15.127 5.05489 12.6659H1.57617V15.3636C3.2895 18.7666 6.81082 21.1 10.8812 21.1Z" fill="#34A853"/>
<path fill-rule="evenodd" clip-rule="evenodd" d="M5.05498 12.6659C4.84673 12.0411 4.72841 11.3738 4.72841 10.6875C4.72841 10.0012 4.84673 9.33386 5.05498 8.70911V6.01132H1.57626C0.871051 7.41701 0.46875 9.00729 0.46875 10.6875C0.46875 12.3677 0.871051 13.958 1.57626 15.3636L5.05498 12.6659Z" fill="#FBBC05"/>
<path fill-rule="evenodd" clip-rule="evenodd" d="M10.8812 4.41631C12.4099 4.41631 13.7825 4.94167 14.8616 5.97345L17.8481 2.98696C16.0448 1.30676 13.6878 0.274975 10.8812 0.274975C6.81082 0.274975 3.2895 2.60832 1.57617 6.01132L5.05489 8.7091C5.8737 6.24797 8.16918 4.41631 10.8812 4.41631Z" fill="#EA4335"/>
</svg>
