<svg width="37" height="33" viewBox="0 0 37 33" fill="none" xmlns="http://www.w3.org/2000/svg">
<path d="M35.846 4.65685C34.2964 1.51288 29.8327 -1.05946 24.6403 0.43821C22.1592 1.14673 19.9944 2.66618 18.4997 4.74831C17.0051 2.66618 14.8403 1.14673 12.3592 0.43821C7.15526 -1.0366 2.70305 1.51288 1.15344 4.65685C-1.02063 9.05841 -0.118619 14.0087 3.83634 19.3706C6.93554 23.5664 11.3646 27.8193 17.7943 32.7582C17.9975 32.9149 18.2478 33 18.5055 33C18.7632 33 19.0135 32.9149 19.2167 32.7582C25.6349 27.8308 30.0755 23.6121 33.1747 19.3706C37.1181 14.0087 38.0201 9.05841 35.846 4.65685V4.65685Z" fill="#FF8A9D"/>
</svg>
