<svg width="13" height="23" viewBox="0 0 13 23" fill="none" xmlns="http://www.w3.org/2000/svg">
<path d="M11.3095 0.276645C11.709 -0.104695 12.342 -0.089974 12.7234 0.309524C13.1047 0.709022 13.09 1.34202 12.6905 1.72336L11.3095 0.276645ZM1 11.5L0.309525 12.2234C0.111844 12.0347 9.4183e-07 11.7733 9.17939e-07 11.5C8.94048e-07 11.2267 0.111844 10.9653 0.309524 10.7766L1 11.5ZM12.6905 21.2766C13.09 21.658 13.1047 22.291 12.7234 22.6905C12.342 23.09 11.709 23.1047 11.3095 22.7234L12.6905 21.2766ZM12.6905 1.72336L1.69048 12.2234L0.309524 10.7766L11.3095 0.276645L12.6905 1.72336ZM1.69048 10.7766L12.6905 21.2766L11.3095 22.7234L0.309525 12.2234L1.69048 10.7766Z" fill="black"/>
</svg>
