<svg width="25" height="24" viewBox="0 0 25 24" fill="none" xmlns="http://www.w3.org/2000/svg">
<path d="M24.7842 14.016C24.7014 14.3377 24.6433 14.6682 24.5312 14.9794C23.8516 16.8698 22.2082 18.0063 20.1457 18.0204C19.8018 18.0233 19.4584 18.0145 19.1151 18.0257C19.0341 18.0286 18.9208 18.068 18.8803 18.129C18.3202 18.968 17.6422 19.7219 16.8671 20.3675C16.8511 20.3897 16.8376 20.4135 16.8266 20.4385H20.9997C21.4416 20.4385 21.603 20.6059 21.5948 21.0514C21.5708 22.4246 20.4333 23.7367 19.0775 23.9469C18.8698 23.9796 18.6598 23.9963 18.4495 23.9968C13.6152 23.9999 8.78087 23.9999 3.94655 23.9968C2.30316 23.9968 1.02249 22.8737 0.803566 21.244C0.794457 21.1586 0.790928 21.0727 0.793001 20.9869C0.793001 20.6217 0.969079 20.438 1.33473 20.4374C2.28731 20.4374 3.24048 20.4374 4.19306 20.4374H4.41609L4.33334 20.4926C4.00172 20.1121 3.67422 19.7294 3.33556 19.3525C2.07074 17.9435 1.24611 16.3103 0.943254 14.4381C0.835847 13.7718 0.808848 13.0879 0.796523 12.411C0.773633 11.2086 0.78948 10.004 0.790067 8.80224C0.790067 8.39423 0.966144 8.21165 1.36995 8.21048C2.50232 8.20735 3.6347 8.20735 4.76708 8.21048C5.00185 8.21048 5.19964 8.28093 5.29531 8.51634C5.36867 8.69246 5.35048 8.8862 5.20492 8.986C5.05401 9.08836 4.87714 9.14577 4.69488 9.15155C3.79689 9.1674 2.89889 9.15918 2.00031 9.15918H1.75967C1.74089 9.19675 1.72856 9.21026 1.72856 9.22317C1.73971 10.6368 1.69041 12.054 1.77786 13.4624C1.91344 15.651 2.81848 17.5267 4.37736 19.063C4.86216 19.5409 5.44439 19.9213 5.99023 20.3352C6.08567 20.3992 6.19815 20.4329 6.31304 20.4321C9.18702 20.4368 12.061 20.4368 14.935 20.4321C15.0572 20.4289 15.1764 20.3931 15.2801 20.3282C17.4963 18.9304 18.8603 16.939 19.368 14.3735C19.4675 13.8363 19.52 13.2914 19.5247 12.745C19.5482 11.6125 19.5324 10.4795 19.5318 9.34704C19.5318 9.29362 19.5247 9.2402 19.5189 9.15977H19.2137C16.1836 9.15977 13.1535 9.15977 10.1234 9.15977C10.0142 9.16178 9.90507 9.15491 9.79703 9.13922C9.69425 9.1235 9.59991 9.07316 9.52961 8.99653C9.45932 8.9199 9.41727 8.82157 9.41043 8.71779C9.40358 8.61402 9.43235 8.51102 9.49198 8.42581C9.5516 8.34061 9.63851 8.27832 9.73834 8.24922C9.83592 8.223 9.93662 8.21016 10.0377 8.21107C13.3021 8.21107 16.5666 8.21107 19.8311 8.21107C20.3007 8.21107 20.4644 8.37603 20.4656 8.84275C20.4656 9.09284 20.4666 9.34274 20.4685 9.59244C20.4741 9.61903 20.4817 9.64514 20.4914 9.67052H20.7514C21.8601 9.67052 22.9694 9.67522 24.0781 9.667C24.3716 9.667 24.614 9.7257 24.7777 9.98519L24.7842 14.016ZM20.5759 21.3878H1.78667C1.82735 21.5275 1.87615 21.6648 1.93281 21.7988C2.36127 22.6647 3.07849 23.0622 4.02814 23.0627C8.75054 23.0627 13.4731 23.0627 18.1959 23.0627C18.4143 23.0625 18.6325 23.0489 18.8492 23.0222C19.6709 22.923 20.4515 22.1851 20.5759 21.3878ZM20.482 11.5362C20.5601 11.5397 20.6141 11.545 20.6687 11.545C21.2151 11.545 21.7621 11.545 22.3085 11.545C22.7335 11.548 22.9072 11.7241 22.9084 12.1415C22.9084 12.6112 22.9166 13.0808 22.9084 13.5505C22.8908 14.38 22.5486 15.0551 21.9041 15.5759C21.3759 16.0026 20.7608 16.1582 20.0923 16.1524C20.0072 16.1524 19.8751 16.1917 19.8446 16.2522C19.7161 16.5075 19.6175 16.7776 19.4819 17.1063C20.0224 17.0664 20.5384 17.0893 21.0214 16.9825C22.7294 16.605 23.8339 15.1978 23.848 13.4395C23.8551 12.5724 23.848 11.7053 23.848 10.8382C23.848 10.7719 23.8392 10.7055 23.8345 10.6445H20.4832L20.482 11.5362ZM20.5337 12.5155C20.4321 13.416 20.3329 14.2943 20.2337 15.1743C20.7432 15.2565 21.4076 14.9019 21.7222 14.3712C22.0661 13.7876 21.954 13.1524 21.9705 12.5155H20.5337Z" fill="#686777"/>
<path d="M10.6314 0.000854492C10.9936 0.304369 11.0182 0.462291 10.7658 0.869717C10.4724 1.34524 10.5111 1.87361 10.8867 2.34561C11.1597 2.68846 11.4114 3.04011 11.5294 3.47278C11.7395 4.24008 11.628 4.95279 11.1825 5.6103C11.0698 5.77895 10.9461 5.93996 10.8122 6.09229C10.7359 6.17717 10.6314 6.23138 10.5181 6.24477C10.4048 6.25817 10.2905 6.22984 10.1965 6.16508C10.0986 6.09807 10.0307 5.99553 10.0071 5.87924C9.98356 5.76295 10.0062 5.64205 10.0703 5.5422C10.1322 5.44317 10.2013 5.34879 10.2769 5.25982C10.8333 4.55534 10.828 3.81328 10.2804 3.09765C10.0967 2.85812 9.91126 2.60627 9.79681 2.33093C9.48633 1.58125 9.60078 0.863259 10.0785 0.213961C10.1437 0.123552 10.2581 0.0707158 10.352 0.000854492H10.6314Z" fill="#686777"/>
<path d="M8.34015 1.57244C8.30162 1.67151 8.25672 1.76799 8.20574 1.86127C7.86943 2.41723 7.89408 2.9086 8.302 3.41525C8.60309 3.78921 8.86134 4.18196 8.96933 4.65866C9.19412 5.65139 8.84608 6.46625 8.18285 7.17777C8.02614 7.34626 7.75792 7.34391 7.58301 7.20713C7.49428 7.14128 7.43262 7.04531 7.40961 6.93722C7.38659 6.82913 7.4038 6.71636 7.458 6.62006C7.52228 6.51333 7.5949 6.41184 7.67516 6.31654C8.23802 5.59973 8.23743 4.85357 7.66929 4.1391C7.42513 3.83265 7.20679 3.5174 7.10525 3.12817C6.92918 2.4548 7.0671 1.84836 7.45741 1.28888C7.5924 1.09632 7.77728 1.0112 8.00619 1.08165C8.21513 1.14564 8.32078 1.30062 8.34015 1.57244Z" fill="#686777"/>
<path d="M14.2335 5.01386C14.2288 6.01188 13.8902 6.61832 13.4001 7.15784C13.3229 7.24262 13.2165 7.29515 13.1023 7.30494C12.9881 7.31474 12.8743 7.28107 12.7838 7.21067C12.6931 7.14167 12.6306 7.04205 12.608 6.93036C12.5853 6.81868 12.604 6.70256 12.6606 6.60364C12.709 6.52362 12.7635 6.44746 12.8237 6.37586C13.4523 5.58332 13.45 4.8624 12.8079 4.07161C12.4704 3.65538 12.2438 3.19629 12.2268 2.65032C12.2108 2.17916 12.3511 1.71593 12.6259 1.33294C12.8173 1.05819 13.0908 0.980694 13.3256 1.13803C13.5603 1.29536 13.5891 1.55543 13.4195 1.8384C13.052 2.4513 13.0802 2.88515 13.5216 3.44697C13.565 3.50216 13.6084 3.55734 13.6513 3.61311C14.0263 4.09686 14.2312 4.63872 14.2335 5.01386Z" fill="#686777"/>
<path d="M18.222 13.0338C18.1164 14.9676 17.3968 16.6478 16.0568 18.0603C15.8508 18.2769 15.5638 18.2951 15.3672 18.1143C15.1706 17.9335 15.1723 17.6623 15.3619 17.4228C15.6554 17.05 15.9788 16.696 16.2364 16.2997C16.9337 15.2289 17.2501 14.0365 17.2888 12.7644C17.2976 12.4632 17.5077 12.27 17.7783 12.283C18.0377 12.2959 18.2155 12.4978 18.222 12.7884C18.2238 12.8683 18.222 12.9463 18.222 13.0338Z" fill="#686777"/>
<path d="M14.615 18.9438C14.6159 19.0057 14.6043 19.0672 14.581 19.1245C14.5577 19.1819 14.5232 19.234 14.4794 19.2778C14.4356 19.3216 14.3835 19.3562 14.3262 19.3795C14.2688 19.4027 14.2074 19.4143 14.1455 19.4134C14.0832 19.4149 14.0213 19.4036 13.9636 19.3802C13.9059 19.3568 13.8536 19.3217 13.81 19.2772C13.7664 19.2328 13.7325 19.1798 13.7102 19.1216C13.6879 19.0634 13.6779 19.0013 13.6806 18.9391C13.6856 18.814 13.7388 18.6957 13.8291 18.6091C13.9194 18.5224 14.0397 18.474 14.1648 18.4741C14.2863 18.4783 14.4013 18.5297 14.4854 18.6174C14.5695 18.7051 14.616 18.8222 14.615 18.9438Z" fill="#686777"/>
<path d="M7.96466 8.69301C7.96435 8.81441 7.91604 8.93077 7.83027 9.01667C7.7445 9.10257 7.62823 9.15104 7.50686 9.15151C7.38144 9.15229 7.26083 9.10329 7.17149 9.01524C7.08214 8.9272 7.03136 8.8073 7.03027 8.68185C7.03713 8.56072 7.08829 8.44633 7.17401 8.36048C7.25973 8.27463 7.37402 8.22332 7.49512 8.21631C7.62024 8.21831 7.73957 8.2694 7.8274 8.35856C7.91523 8.44773 7.96452 8.56784 7.96466 8.69301Z" fill="#686777"/>
</svg>
