<svg width="63" height="63" viewBox="0 0 63 63" fill="none" xmlns="http://www.w3.org/2000/svg">
<path d="M61.6724 15.9546L47.0554 1.34075C46.6303 0.915682 46.1256 0.578498 45.5701 0.348451C45.0147 0.118404 44.4193 0 43.8181 0C43.2169 0 42.6215 0.118404 42.0661 0.348451C41.5106 0.578498 41.0059 0.915682 40.5808 1.34075L1.3407 40.5725C0.49111 41.4369 0.0104271 42.5973 0 43.8091V58.423C0 59.6369 0.482325 60.8011 1.34087 61.6594C2.19941 62.5178 3.36385 63 4.57801 63H19.1949C20.407 62.9896 21.5677 62.509 22.4323 61.6596L61.6724 22.4278C62.5231 21.5653 63 20.4026 63 19.1912C63 17.9798 62.5231 16.8171 61.6724 15.9546V15.9546ZM4.74151 42.7303L33.3541 14.1238L39.7306 20.4989L11.118 49.1054L4.74151 42.7303ZM3.92401 58.423V47.4708L15.5325 59.0768H4.57801C4.40456 59.0768 4.23821 59.0079 4.11556 58.8853C3.99291 58.7627 3.92401 58.5964 3.92401 58.423ZM20.274 58.2595L13.8975 51.8843L42.5101 23.2778L48.8866 29.653L20.274 58.2595ZM58.8928 19.6489L51.6661 26.8741L36.1336 11.3448L43.3603 4.11967C43.4185 4.05625 43.4893 4.00561 43.5681 3.97097C43.6469 3.93633 43.732 3.91845 43.8181 3.91845C43.9042 3.91845 43.9893 3.93633 44.0682 3.97097C44.147 4.00561 44.2177 4.05625 44.2759 4.11967L58.8928 18.7335C58.9563 18.7917 59.0069 18.8624 59.0416 18.9412C59.0762 19.02 59.0941 19.1051 59.0941 19.1912C59.0941 19.2773 59.0762 19.3624 59.0416 19.4412C59.0069 19.52 58.9563 19.5907 58.8928 19.6489V19.6489Z" fill="black"/>
</svg>
