<svg width="25" height="17" viewBox="0 0 25 17" fill="none" xmlns="http://www.w3.org/2000/svg">
<path d="M0.885182 16.3504C0.703997 16.2251 0.645869 16.0591 0.649579 15.8361C0.662565 15.125 0.653908 14.4139 0.654526 13.7028C0.654526 13.0569 1.01628 12.6954 1.66063 12.6935C2.16935 12.6935 2.67848 12.6921 3.18802 12.6892C3.21211 12.6831 3.23537 12.674 3.25728 12.6622V12.3985C3.25728 10.5148 3.25728 8.6313 3.25728 6.74804C3.25728 6.13407 3.49165 5.89663 4.09642 5.89663H9.18321C9.18321 5.53013 9.18321 5.18868 9.18321 4.84724C9.17953 4.76135 9.18429 4.67531 9.19743 4.59037C9.23577 4.41057 9.34584 4.3003 9.53568 4.29842C9.61782 4.29263 9.69904 4.31885 9.76272 4.37172C9.82641 4.42459 9.86774 4.50012 9.87827 4.58286C9.89387 4.6751 9.89988 4.76876 9.8962 4.86228C9.8962 7.36327 9.8962 9.86405 9.8962 12.3646V12.6779H15.0968V0.745536H9.8962V0.990498C9.8962 1.66273 9.8962 2.33497 9.8962 3.00721C9.8962 3.0993 9.90609 3.21896 9.85601 3.27785C9.77438 3.37371 9.64761 3.4871 9.54001 3.48648C9.43242 3.48585 9.31554 3.36619 9.2234 3.2766C9.18321 3.23776 9.18568 3.14441 9.18568 3.07549C9.18568 2.29362 9.17888 1.50924 9.18568 0.731127C9.19001 0.268769 9.45282 0.00438551 9.91228 0.00313251C11.64 -0.00104417 13.3678 -0.00104417 15.0955 0.00313251C15.5643 0.00313251 15.8184 0.271901 15.8215 0.754933C15.8271 1.47353 15.8215 2.19589 15.8215 2.91135V3.20706H20.8706C21.531 3.20706 21.7468 3.42445 21.7468 4.08416C21.7468 6.84327 21.7468 9.60196 21.7468 12.3602V12.6929H22.5866C22.795 12.6929 23.0046 12.7079 23.2111 12.6929C23.7677 12.6466 24.1486 12.8677 24.3508 13.3977V16.3523L0.885182 16.3504ZM1.34773 15.6155H23.6595C23.6595 14.9966 23.6595 14.3957 23.6595 13.7943C23.6595 13.4491 23.6106 13.3977 23.2773 13.3977H19.5522C19.4823 13.3977 19.4131 13.3977 19.3438 13.3977C19.2523 13.3965 19.165 13.3585 19.1012 13.292C19.0373 13.2256 19.0021 13.1362 19.0034 13.0434C19.0046 12.9507 19.0421 12.8623 19.1077 12.7976C19.1733 12.7329 19.2616 12.6973 19.3531 12.6986C19.6146 12.691 19.8775 12.6986 20.1396 12.6986H21.0202V3.93568H15.8425V12.6935H17.6649C18.0557 12.6935 18.2319 12.8057 18.2264 13.0519C18.2208 13.2981 18.0545 13.3971 17.6748 13.3971H1.80038C1.73112 13.3971 1.66187 13.3971 1.59261 13.3971C1.43678 13.4059 1.34897 13.4898 1.34835 13.6477C1.34649 14.2993 1.34773 14.9471 1.34773 15.6155ZM3.98883 6.62963V12.676H9.17084V6.62963H3.98883Z" fill="#04021D"/>
</svg>
