<svg width="25" height="24" viewBox="0 0 25 24" fill="none" xmlns="http://www.w3.org/2000/svg">
<path d="M0.885182 23.9981C0.703997 23.8728 0.645869 23.7068 0.649579 23.4838C0.662565 22.7727 0.653908 22.0616 0.654526 21.3505C0.654526 20.7046 1.01628 20.3431 1.66063 20.3412C2.16935 20.3412 2.67848 20.3398 3.18802 20.3369C3.21211 20.3308 3.23537 20.3217 3.25728 20.3099V20.0462C3.25728 18.1625 3.25728 16.279 3.25728 14.3957C3.25728 13.7818 3.49165 13.5443 4.09642 13.5443H9.18321C9.18321 13.1778 9.18321 12.8364 9.18321 12.4949C9.17953 12.4091 9.18429 12.323 9.19743 12.2381C9.23577 12.0583 9.34584 11.948 9.53568 11.9461C9.61782 11.9403 9.69904 11.9666 9.76272 12.0194C9.82641 12.0723 9.86774 12.1478 9.87827 12.2306C9.89387 12.3228 9.89988 12.4165 9.8962 12.51C9.8962 15.011 9.8962 17.5118 9.8962 20.0123V20.3256H15.0968V8.39324H9.8962V8.6382C9.8962 9.31044 9.8962 9.98267 9.8962 10.6549C9.8962 10.747 9.90609 10.8667 9.85601 10.9256C9.77438 11.0214 9.64761 11.1348 9.54001 11.1342C9.43242 11.1336 9.31554 11.0139 9.2234 10.9243C9.18321 10.8855 9.18568 10.7921 9.18568 10.7232C9.18568 9.94133 9.17888 9.15695 9.18568 8.37883C9.19001 7.91647 9.45282 7.65209 9.91228 7.65084C11.64 7.64666 13.3678 7.64666 15.0955 7.65084C15.5643 7.65084 15.8184 7.91961 15.8215 8.40264C15.8271 9.12124 15.8215 9.84359 15.8215 10.5591V10.8548H20.8706C21.531 10.8548 21.7468 11.0722 21.7468 11.7319C21.7468 14.491 21.7468 17.2497 21.7468 20.0079V20.3406H22.5866C22.795 20.3406 23.0046 20.3557 23.2111 20.3406C23.7677 20.2943 24.1486 20.5154 24.3508 21.0454V24L0.885182 23.9981ZM1.34773 23.2632H23.6595C23.6595 22.6443 23.6595 22.0434 23.6595 21.442C23.6595 21.0968 23.6106 21.0454 23.2773 21.0454H19.5522C19.4823 21.0454 19.4131 21.0454 19.3438 21.0454C19.2523 21.0442 19.165 21.0062 19.1012 20.9397C19.0373 20.8733 19.0021 20.7839 19.0034 20.6911C19.0046 20.5984 19.0421 20.51 19.1077 20.4453C19.1733 20.3806 19.2616 20.345 19.3531 20.3463C19.6146 20.3387 19.8775 20.3463 20.1396 20.3463H21.0202V11.5834H15.8425V20.3412H17.6649C18.0557 20.3412 18.2319 20.4534 18.2264 20.6996C18.2208 20.9458 18.0545 21.0448 17.6748 21.0448H1.80038C1.73112 21.0448 1.66187 21.0448 1.59261 21.0448C1.43678 21.0536 1.34897 21.1375 1.34835 21.2954C1.34649 21.947 1.34773 22.5948 1.34773 23.2632ZM3.98883 14.2773V20.3237H9.17084V14.2773H3.98883Z" fill="#686777"/>
<path d="M14.1304 6.64216C14.0354 6.60924 13.9423 6.57096 13.8515 6.52751C13.4613 6.3239 13.0711 6.12154 12.6883 5.90101C12.6309 5.86426 12.5642 5.84527 12.4963 5.84639C12.4284 5.8475 12.3623 5.86866 12.3062 5.90728C11.9228 6.1228 11.5301 6.3214 11.1442 6.53378C10.8969 6.67036 10.6452 6.70356 10.4084 6.52062C10.1715 6.33769 10.1159 6.10525 10.1752 5.8133C10.2674 5.36348 10.3403 4.90926 10.4028 4.45442C10.4068 4.40363 10.4008 4.35253 10.385 4.30412C10.3693 4.25572 10.3443 4.21097 10.3113 4.1725C9.98972 3.83607 9.65394 3.51279 9.32187 3.18701C9.12522 2.99405 9.02195 2.77415 9.11656 2.49285C9.21118 2.21155 9.42143 2.08374 9.70712 2.04741C10.1499 1.99102 10.5902 1.91772 11.0323 1.85946C11.0964 1.85411 11.1576 1.83017 11.2086 1.7905C11.2596 1.75084 11.2982 1.69713 11.3198 1.63579C11.5054 1.23295 11.7113 0.840764 11.898 0.438551C12.0217 0.174794 12.2023 0 12.4954 0C12.799 0 12.9851 0.178553 13.1107 0.449828C13.2962 0.852041 13.5064 1.2436 13.6882 1.6477C13.7117 1.70831 13.7518 1.76081 13.8039 1.79891C13.856 1.83702 13.9178 1.85913 13.982 1.86259C14.4315 1.92524 14.8811 1.99165 15.3307 2.05492C15.5966 2.09189 15.7901 2.2222 15.8841 2.4847C15.9781 2.74721 15.8971 2.97588 15.7079 3.16571C15.3789 3.49525 15.0499 3.82479 14.7123 4.14493C14.6623 4.18563 14.6251 4.24018 14.6053 4.30192C14.5854 4.36366 14.5837 4.42993 14.6004 4.49264C14.6919 4.9669 14.7716 5.44304 14.8477 5.92043C14.912 6.31513 14.596 6.66221 14.1304 6.64216ZM10.8839 5.86781C11.3112 5.64164 11.7156 5.43928 12.1083 5.21625C12.2259 5.14165 12.3616 5.10172 12.5003 5.10095C12.6391 5.10017 12.7753 5.13858 12.8936 5.21186C13.29 5.43239 13.6938 5.63976 14.1217 5.86718C14.0413 5.38164 13.9795 4.92743 13.8874 4.47823C13.8212 4.15621 13.9276 3.92503 14.1489 3.70513C14.4612 3.39188 14.7525 3.06296 15.0487 2.7447C15.0167 2.73045 14.9833 2.71973 14.9491 2.71275C14.6065 2.66138 14.2646 2.59309 13.9201 2.56865C13.5015 2.53858 13.2003 2.37381 13.0587 1.95594C13.0178 1.85501 12.971 1.75667 12.9184 1.66148C12.7866 1.39396 12.6543 1.12708 12.501 0.816331C12.2691 1.28934 12.06 1.71285 11.8547 2.13762C11.8103 2.24203 11.7395 2.33276 11.6496 2.40072C11.5596 2.46867 11.4536 2.51146 11.3421 2.5248C11.0447 2.56678 10.7478 2.61314 10.451 2.65887C10.2754 2.68581 10.1004 2.71588 9.96065 2.73844C10.2773 3.08051 10.5846 3.42007 10.9006 3.75086C11.0861 3.94382 11.1751 4.14994 11.1226 4.42623C11.0348 4.89172 10.9668 5.3616 10.8839 5.86781Z" fill="#686777"/>
<path d="M17.2551 5.36719C17.5315 5.51128 17.7789 5.60651 17.9761 5.76188C18.0516 5.8214 18.0695 6.05697 18.0145 6.15407C17.9594 6.25118 17.7671 6.33513 17.657 6.31258C17.4467 6.2691 17.2484 6.17903 17.0764 6.04882C16.9886 5.98053 16.9348 5.78256 16.9632 5.66728C16.9917 5.55201 17.1419 5.47745 17.2551 5.36719Z" fill="#686777"/>
<path d="M7.30256 6.40157C7.18631 6.29006 7.04346 6.21362 7.01254 6.10586C6.98163 5.99811 7.02058 5.79261 7.10097 5.73748C7.295 5.60028 7.51241 5.50066 7.74223 5.44365C7.83684 5.4211 8.01927 5.52572 8.06935 5.62221C8.11944 5.71869 8.10337 5.94235 8.03225 5.99811C7.82262 6.15598 7.57156 6.25873 7.30256 6.40157Z" fill="#686777"/>
<path d="M6.935 2.97594C7.02687 2.97124 7.11892 2.97124 7.2108 2.97594C7.25389 2.97671 7.29639 2.98629 7.33574 3.0041C7.3751 3.02191 7.4105 3.04758 7.43983 3.07957C7.46916 3.11157 7.49182 3.14924 7.50644 3.19031C7.52106 3.23139 7.52735 3.27504 7.52493 3.31864C7.53361 3.40208 7.50935 3.48561 7.45744 3.55099C7.40554 3.61638 7.33021 3.65829 7.2479 3.6676C7.04279 3.69573 6.83495 3.69699 6.62952 3.67136C6.44401 3.64818 6.33208 3.5141 6.34136 3.31112C6.35063 3.10813 6.46503 2.99787 6.6592 2.97845C6.75128 2.97374 6.84354 2.97374 6.93562 2.97845L6.935 2.97594Z" fill="#686777"/>
<path d="M18.1084 3.69446C18.0014 3.69314 17.8947 3.68287 17.7893 3.66376C17.7085 3.64816 17.6365 3.60202 17.5879 3.53468C17.5393 3.46733 17.5178 3.38381 17.5278 3.30101C17.5407 3.11995 17.6465 2.9934 17.8369 2.98024C18.0208 2.96834 18.2053 2.96834 18.3892 2.98024C18.4319 2.97897 18.4745 2.98649 18.5142 3.00236C18.554 3.01823 18.5902 3.04212 18.6206 3.07258C18.6511 3.10304 18.675 3.13943 18.6912 3.17956C18.7073 3.21968 18.7152 3.26271 18.7144 3.30602C18.7189 3.35096 18.7145 3.39633 18.7016 3.43956C18.6887 3.48278 18.6675 3.52301 18.6393 3.55792C18.611 3.59284 18.5762 3.62177 18.5369 3.64304C18.4976 3.66432 18.4545 3.67754 18.4102 3.68193C18.3105 3.68913 18.2105 3.68913 18.1109 3.68193L18.1084 3.69446Z" fill="#686777"/>
<path d="M17.2554 1.278C17.1422 1.16962 16.9901 1.09005 16.9629 0.979163C16.9357 0.868272 16.987 0.665913 17.0754 0.597624C17.2466 0.466308 17.4445 0.375344 17.6548 0.331361C17.7226 0.326268 17.7905 0.337984 17.8528 0.365493C17.9151 0.393003 17.9698 0.435477 18.0123 0.489239C18.0685 0.585094 18.0525 0.821285 17.9782 0.880176C17.7785 1.03743 17.5312 1.13328 17.2554 1.278Z" fill="#686777"/>
<path d="M7.30587 0.248779C7.57672 0.392875 7.82655 0.495621 8.03432 0.654752C8.10544 0.708631 8.10791 0.916629 8.07328 1.03379C8.0618 1.06963 8.04318 1.10271 8.01856 1.13096C7.99394 1.15921 7.96385 1.18203 7.93016 1.19801C7.89647 1.21399 7.8599 1.22279 7.82271 1.22385C7.78553 1.22491 7.74853 1.21822 7.714 1.20419C7.50499 1.1334 7.28794 1.05321 7.11603 0.921641C7.03008 0.855859 6.98803 0.654752 7.01585 0.536343C7.03997 0.431718 7.189 0.35779 7.30587 0.248779Z" fill="#686777"/>
</svg>
