<svg width="13" height="23" viewBox="0 0 13 23" fill="none" xmlns="http://www.w3.org/2000/svg">
<path d="M1.69048 22.7234C1.29098 23.1047 0.657983 23.09 0.276644 22.6905C-0.104695 22.291 -0.0899739 21.658 0.309524 21.2766L1.69048 22.7234ZM12 11.5L12.6905 10.7766C12.8882 10.9653 13 11.2267 13 11.5C13 11.7733 12.8882 12.0347 12.6905 12.2234L12 11.5ZM0.309528 1.72336C-0.0899703 1.34202 -0.104691 0.709022 0.276648 0.309524C0.657988 -0.0899735 1.29098 -0.104694 1.69048 0.276644L0.309528 1.72336ZM0.309524 21.2766L11.3095 10.7766L12.6905 12.2234L1.69048 22.7234L0.309524 21.2766ZM11.3095 12.2234L0.309528 1.72336L1.69048 0.276644L12.6905 10.7766L11.3095 12.2234Z" fill="black"/>
</svg>
