<svg width="53" height="53" viewBox="0 0 53 53" fill="none" xmlns="http://www.w3.org/2000/svg">
<path d="M26.666 14.9062C20.2066 14.9062 15.0723 20.0406 15.0723 26.5C15.0723 32.9594 20.2066 38.0938 26.666 38.0938C33.1254 38.0938 38.2598 32.9594 38.2598 26.5C38.2598 20.0406 33.1254 14.9062 26.666 14.9062ZM26.666 34.7812C22.0285 34.7812 18.3848 31.1375 18.3848 26.5C18.3848 21.8625 22.0285 18.2188 26.666 18.2188C31.3035 18.2188 34.9473 21.8625 34.9473 26.5C34.9473 31.1375 31.3035 34.7812 26.666 34.7812Z" fill="black"/>
<path d="M51.0125 21.0344L46.375 19.5438L45.3812 17.0594L47.7 12.7531C48.1969 11.7594 48.0312 10.4344 47.2031 9.60625L43.2281 5.63125C42.4 4.80313 41.075 4.6375 40.0813 5.13437L35.775 7.45312L33.2906 6.45938L31.8 1.82187C31.4688 0.828125 30.475 0 29.3156 0H23.6844C22.525 0 21.5312 0.828125 21.3656 1.9875L19.875 6.625C18.8812 6.79063 18.0531 7.12187 17.225 7.61875L12.9188 5.3C11.925 4.80312 10.6 4.96875 9.77188 5.79688L5.79688 9.77188C4.96875 10.6 4.80312 11.925 5.3 12.9188L7.45312 17.0594C7.12187 17.8875 6.79063 18.8812 6.45938 19.7094L1.82187 21.2C0.828125 21.5313 0 22.525 0 23.6844V29.3156C0 30.475 0.828125 31.4688 1.9875 31.8L6.625 33.2906L7.61875 35.775L5.3 40.0813C4.80312 41.075 4.96875 42.4 5.79688 43.2281L9.77188 47.2031C10.6 48.0312 11.925 48.1969 12.9188 47.7L17.225 45.3812L19.7094 46.375L21.2 51.1781C21.5313 52.1719 22.525 53 23.6844 53H29.3156C30.475 53 31.4688 52.1719 31.8 51.1781L33.2906 46.375L35.775 45.3812L40.0813 47.7C41.075 48.1969 42.4 48.0312 43.2281 47.2031L47.2031 43.2281C48.0312 42.4 48.1969 41.075 47.7 40.0813L45.3812 35.775L46.375 33.2906L51.1781 31.8C52.1719 31.4688 53 30.475 53 29.3156V23.6844C53 22.525 52.1719 21.3656 51.0125 21.0344V21.0344ZM49.6875 28.8187L43.725 30.6406L43.5594 31.4688L42.0687 34.9469L41.5719 35.775L44.5531 41.2406L41.2406 44.5531L35.775 41.5719L34.9469 42.0687C33.7875 42.7312 32.6281 43.2281 31.4688 43.5594L30.6406 43.725L28.8187 49.6875H24.1813L22.3594 43.725L21.5312 43.5594L18.0531 42.0687L17.225 41.5719L11.7594 44.5531L8.44687 41.2406L11.4281 35.775L10.9313 34.9469C10.2688 33.7875 9.77187 32.6281 9.44062 31.4688L9.275 30.6406L3.3125 28.8187V24.1813L8.94375 22.525L9.275 21.6969C9.60625 20.3719 10.1031 19.2125 10.7656 18.0531L11.2625 17.225L8.44687 11.7594L11.7594 8.44687L17.0594 11.4281L17.8875 10.9313C19.0469 10.2688 20.2062 9.77187 21.5312 9.44062L22.3594 9.10938L24.1813 3.3125H28.8187L30.6406 9.10938L31.4688 9.44062C32.6281 9.77187 33.7875 10.2688 34.9469 10.9313L35.775 11.4281L41.2406 8.44687L44.5531 11.7594L41.5719 17.225L42.0687 18.0531C42.7312 19.2125 43.2281 20.3719 43.5594 21.5312L43.725 22.3594L49.6875 24.1813V28.8187V28.8187Z" fill="black"/>
</svg>
