<svg width="40" height="38" viewBox="0 0 40 38" fill="none" xmlns="http://www.w3.org/2000/svg">
<path d="M38.5234 17.2186C38.9673 16.8872 39.2965 16.4249 39.4649 15.8966C39.6334 15.3682 39.6326 14.8002 39.4627 14.2723C39.2929 13.7444 38.9624 13.2831 38.5177 12.9529C38.073 12.6227 37.5364 12.4403 36.983 12.4312L26.2359 12.0243C26.183 12.0207 26.1324 12.0018 26.09 11.9699C26.0476 11.9381 26.0153 11.8946 25.997 11.8448L22.2833 1.79144C22.0967 1.27996 21.7578 0.838301 21.3125 0.526262C20.8671 0.214223 20.3369 0.046875 19.7935 0.046875C19.2502 0.046875 18.7199 0.214223 18.2746 0.526262C17.8293 0.838301 17.4904 1.27996 17.3038 1.79144L13.602 11.8807C13.5837 11.9305 13.5514 11.974 13.509 12.0058C13.4666 12.0377 13.416 12.0566 13.3631 12.0602L2.61598 12.4671C2.06262 12.4762 1.52597 12.6586 1.08127 12.9888C0.636575 13.319 0.306125 13.7803 0.13626 14.3082C-0.0336048 14.8362 -0.034367 15.4041 0.134081 15.9325C0.302528 16.4608 0.631739 16.9231 1.07555 17.2545L9.5061 23.8969C9.5483 23.9301 9.57983 23.9751 9.59681 24.0261C9.61379 24.0772 9.61547 24.1321 9.60163 24.1841L6.6999 34.4888C6.54953 35.0135 6.5641 35.572 6.74162 36.0881C6.91914 36.6043 7.251 37.0531 7.69204 37.3735C8.13308 37.6939 8.66191 37.8704 9.20656 37.8789C9.75122 37.8874 10.2853 37.7275 10.7361 37.421L19.6443 31.4369C19.6881 31.4065 19.7402 31.3903 19.7935 31.3903C19.8469 31.3903 19.8989 31.4065 19.9428 31.4369L28.851 37.421C29.2957 37.738 29.8278 37.9083 30.3735 37.9083C30.9192 37.9083 31.4513 37.738 31.896 37.421C32.3372 37.1036 32.6694 36.657 32.8468 36.1426C33.0243 35.6283 33.0384 35.0714 32.8872 34.5486L29.9615 24.208C29.946 24.1561 29.9469 24.1007 29.964 24.0493C29.9811 23.9979 30.0136 23.953 30.0571 23.9208L38.5234 17.2186Z" fill="#FF8A9D"/>
</svg>
