<svg width="73" height="65" viewBox="0 0 73 65" fill="none" xmlns="http://www.w3.org/2000/svg">
<path d="M2.28125 41.4265C2.88628 41.4265 3.46652 41.6669 3.89434 42.0947C4.32215 42.5225 4.5625 43.1027 4.5625 43.7078V55.114C4.5625 56.3241 5.04319 57.4846 5.89883 58.3402C6.75446 59.1958 7.91495 59.6765 9.125 59.6765H63.875C65.0851 59.6765 66.2455 59.1958 67.1012 58.3402C67.9568 57.4846 68.4375 56.3241 68.4375 55.114V43.7078C68.4375 43.1027 68.6778 42.5225 69.1057 42.0947C69.5335 41.6669 70.1137 41.4265 70.7188 41.4265C71.3238 41.4265 71.904 41.6669 72.3318 42.0947C72.7597 42.5225 73 43.1027 73 43.7078V55.114C73 57.5341 72.0386 59.8551 70.3273 61.5664C68.6161 63.2776 66.2951 64.239 63.875 64.239H9.125C6.7049 64.239 4.38392 63.2776 2.67265 61.5664C0.961381 59.8551 0 57.5341 0 55.114V43.7078C0 43.1027 0.240345 42.5225 0.668163 42.0947C1.09598 41.6669 1.67622 41.4265 2.28125 41.4265Z" fill="black"/>
<path d="M34.8858 1.48661C35.0977 1.27416 35.3495 1.10561 35.6266 0.990608C35.9038 0.875604 36.2009 0.816406 36.5009 0.816406C36.801 0.816406 37.0981 0.875604 37.3753 0.990608C37.6524 1.10561 37.9041 1.27416 38.1161 1.48661L51.8036 15.1741C52.2319 15.6025 52.4726 16.1834 52.4726 16.7892C52.4726 17.395 52.2319 17.976 51.8036 18.4044C51.3752 18.8327 50.7942 19.0734 50.1884 19.0734C49.5826 19.0734 49.0017 18.8327 48.5733 18.4044L38.7822 8.60867V48.7267C38.7822 49.3318 38.5418 49.912 38.114 50.3398C37.6862 50.7676 37.106 51.008 36.5009 51.008C35.8959 51.008 35.3157 50.7676 34.8878 50.3398C34.46 49.912 34.2197 49.3318 34.2197 48.7267V8.60867L24.4286 18.4044C24.2165 18.6165 23.9647 18.7847 23.6875 18.8995C23.4104 19.0143 23.1134 19.0734 22.8134 19.0734C22.5135 19.0734 22.2165 19.0143 21.9393 18.8995C21.6622 18.7847 21.4104 18.6165 21.1983 18.4044C20.9862 18.1923 20.818 17.9405 20.7032 17.6633C20.5884 17.3862 20.5293 17.0892 20.5293 16.7892C20.5293 16.4893 20.5884 16.1923 20.7032 15.9151C20.818 15.638 20.9862 15.3862 21.1983 15.1741L34.8858 1.48661Z" fill="black"/>
</svg>
